<?xml version="1.0" encoding="utf-8"?>
<!-- Generator: Adobe Illustrator 28.3.0, SVG Export Plug-In . SVG Version: 6.00 Build 0)  -->
<svg version="1.1" xmlns="http://www.w3.org/2000/svg" xmlns:xlink="http://www.w3.org/1999/xlink" x="0px" y="0px"
	 viewBox="0 0 3840 2160" style="enable-background:new 0 0 3840 2160;" xml:space="preserve">
<style type="text/css">
	.st0{fill:none;}
	.st1{fill:none;stroke:#FCFCFF;stroke-width:0.5;stroke-linecap:round;stroke-linejoin:round;stroke-miterlimit:10;}
</style>
<g id="BASE">
	
		
	<path class="st0" d="M970.45,807.91"/>
</g>
<g id="ETAPAS">
	<polygon id="ZONA_1_00000145771230020724831950000006736368258044047243_" class="st1" points="1017.98,1445.32 14.45,1454.13 
		15.9,1444.36 21.97,1388.42 27.41,1276.1 27.96,1189.33 21.14,1045.23 5.28,911.6 -2.18,868.48 490.2,837.93 	"/>
	<polygon id="ZONA_2_00000023967574366147628630000010275518412435656625_" class="st1" points="965.47,808.43 490.2,837.93 
		1017.98,1445.32 1515.09,1440.95 	"/>
	<polygon id="ZONA_3_00000085218828527481036160000000368614707427813295_" class="st1" points="965.47,808.43 1440.74,778.94 
		2012.2,1436.58 1515.09,1440.95 	"/>
	<polygon id="ZONA_4_00000176755110012533560750000002683439692464792998_" class="st1" points="1440.74,778.94 2012.2,1436.58 
		2437.44,1446.29 2399.42,1302.73 1916.19,754.8 	"/>
	<polygon id="ZONA_6_00000008117773302162739380000007622051096936085120_" class="st1" points="2755.25,717.93 3840,636.2 
		3839.79,1420.08 2919.9,1452.31 	"/>
	<polygon id="ZONA_5_00000128468192471261110530000003871244133882984112_" class="st1" points="1916.19,754.8 2755.25,717.93 
		2919.9,1452.31 2437.44,1446.29 2399.42,1302.73 	"/>
</g>
</svg>
